<svg width="50" height="50" viewBox="0 0 50 50" fill="none" xmlns="http://www.w3.org/2000/svg">
<path id="Vector" d="M46.4286 45V40C46.4208 32.4815 44.3984 25.2407 40.7613 19.709C37.1242 14.1773 32.137 10.7573 26.7857 10.125V5H32.1429V0H17.8571V5H23.2143V10.125C17.863 10.7573 12.8758 14.1773 9.23869 19.709C5.60158 25.2407 3.57923 32.4815 3.57143 40V45H0V50H50V45H46.4286ZM25 15C29.1145 15.008 33.1012 17.0015 36.2883 20.6446C39.4754 24.2877 41.6679 29.3577 42.4964 35H7.50357C8.33205 29.3577 10.5246 24.2877 13.7117 20.6446C16.8988 17.0015 20.8855 15.008 25 15ZM7.14286 40H42.8571V45H7.14286V40Z" fill="black"/>
</svg>
